:SAMPLES-PER-SECOND 30
:FULLY-SPECIFIED
:DEGREES
504
root  75.3912 39.5719 4.04365 -172.842 85.6381 -178.535
RightUpLeg  -12.7152 -8.27726 -3.7494
RightLeg  3.42666 24.6489 2.785
RightFoot  7.00627 -1.00491 6.51406
RightToes  2.91037e-010 0 -3.6325e-017
Spine  19.8622 3.44548 -29.1696
Spine1  -8.33271 -7.42904 57.186
HEad  -116.997 37.2132 -96.7534
LeftShoulder1  -12.5663 26.9205 -45.6231
LeftArm  -70.0084 -47.7057 56.1851
LeftForeArm  44.0822 -64.4269 -19.2242
LeftHand  -170.246 -69.9339 173.469
RightShoulder  -0.308782 9.93669 -12.3244
RightArm  -27.8954 -35.8119 113.317
RightForeArm  -2.62753 24.5969 175.117
RightHand  95.4379 32.9031 145.33
LeftUpLeg  -10.4161 5.07343 2.65419
LeftLeg  5.38606 -7.7872 -0.352772
LeftFoot  1.54406 0.157054 -1.47985
LeftToes  -7.53974e-010 3.3384e-011 -1.25048e-011
505
root  75.5264 39.5962 4.1179 -174.034 85.821 179.977
RightUpLeg  -12.5637 -8.08802 -3.64109
RightLeg  2.80174 24.662 2.35264
RightFoot  6.93061 -1.01397 6.59413
RightToes  2.91037e-010 0 -3.6325e-017
Spine  19.669 3.51718 -29.2466
Spine1  -6.2465 -8.74951 59.046
HEad  -120.12 35.0466 -100.17
LeftShoulder1  -12.5411 24.6049 -50.7188
LeftArm  -70.4445 -40.9668 58.9901
LeftForeArm  45.8049 -68.5548 -23.9827
LeftHand  176.82 -70.7828 -177.044
RightShoulder  -0.272868 10.3695 -11.944
RightArm  -26.9291 -32.5642 108.2
RightForeArm  -7.19481 27.0301 174.83
RightHand  94.1625 32.8987 144.613
LeftUpLeg  -10.1889 5.23895 2.76662
LeftLeg  4.77626 -7.69219 -0.414412
LeftFoot  1.25498 0.266235 -2.47931
LeftToes  -7.53974e-010 3.3384e-011 -1.25048e-011
506
root  75.6389 39.5968 4.17313 -173.939 86.1811 179.827
RightUpLeg  -12.6325 -7.88977 -3.44066
RightLeg  2.69424 24.6306 2.21228
RightFoot  6.70111 -0.948017 6.25431
RightToes  2.91037e-010 0 -3.6325e-017
Spine  19.607 3.29738 -30.4545
Spine1  -5.4661 -9.88849 60.9092
HEad  -124.126 33.1643 -102.328
LeftShoulder1  -13.8871 27.2554 -49.7718
LeftArm  -69.133 -41.3968 55.419
LeftForeArm  48.0172 -71.4981 -29.0682
LeftHand  155.251 -71.9989 -160.778
RightShoulder  -0.220702 10.7125 -11.4673
RightArm  -25.4318 -31.8827 105.833
RightForeArm  -4.53225 27.0351 174.682
RightHand  94.3107 31.839 145.644
LeftUpLeg  -10.0909 5.40859 2.90232
LeftLeg  4.54426 -7.5486 -0.475078
LeftFoot  1.27342 0.242883 -2.27013
LeftToes  -7.53974e-010 3.3384e-011 -1.25048e-011
507
root  75.7161 39.5927 4.22513 -175.62 86.5119 178.043
RightUpLeg  -12.7532 -7.76243 -3.33962
RightLeg  2.91894 24.645 2.22413
RightFoot  6.53749 -0.84791 5.67196
RightToes  2.91037e-010 0 -3.6325e-017
Spine  19.6931 3.16306 -31.3896
Spine1  -4.75265 -10.8592 62.3059
HEad  -127.581 31.4208 -104.158
LeftShoulder1  -15.3186 30.13 -48.7453
LeftArm  -66.926 -42.3005 50.849
LeftForeArm  53.0772 -74.6004 -36.6884
LeftHand  132.018 -71.3423 -142.979
RightShoulder  -0.175641 11.0566 -11.0681
RightArm  -24.0864 -30.7793 103.97
RightForeArm  -1.41332 27.3851 174.432
RightHand  94.3506 30.6995 146.681
LeftUpLeg  -10.1609 5.47797 2.93056
LeftLeg  4.78163 -7.17821 -0.545654
LeftFoot  1.0728 0.270929 -2.55508
LeftToes  -7.53974e-010 3.3384e-011 -1.25048e-011
508
root  75.7972 39.5951 4.23838 -178.65 87.0495 174.402
RightUpLeg  -13.6173 -7.65494 -3.29064
RightLeg  3.38402 24.9062 2.3106
RightFoot  6.61976 -0.791169 5.28988
RightToes  2.91037e-010 0 -3.6325e-017
Spine  18.9089 2.71068 -32.6988
Spine1  -3.47769 -12.3952 63.9479
HEad  -131.375 29.2135 -105.565
LeftShoulder1  -16.7758 32.8685 -48.2086
LeftArm  -65.1467 -42.6295 46.6101
LeftForeArm  61.5326 -77.3046 -47.7953
LeftHand  114.49 -69.8257 -129.643
RightShoulder  -0.160719 11.3664 -10.9229
RightArm  -22.9641 -29.7414 101.961
RightForeArm  2.10559 27.3715 174.243
RightHand  95.5182 29.9957 147.927
LeftUpLeg  -10.545 5.31697 2.74794
LeftLeg  4.60221 -6.45254 -0.492705
LeftFoot  1.3815 0.235879 -2.19877
LeftToes  -7.53974e-010 3.3384e-011 -1.25048e-011
509
root  75.8215 39.6 4.25936 -177.066 87.2341 175.983
RightUpLeg  -13.6352 -7.48239 -3.12102
RightLeg  3.39531 24.9867 2.24463
RightFoot  6.71388 -0.799585 5.31805
RightToes  2.91037e-010 0 -3.6325e-017
Spine  19.022 2.49569 -33.5285
Spine1  -2.68083 -13.5821 65.5456
HEad  -134.776 27.4028 -106.862
LeftShoulder1  -18.5056 36.6351 -46.7899
LeftArm  -60.0316 -44.6058 38.7751
LeftForeArm  78.938 -79.6207 -67.2264
LeftHand  95.5038 -65.9522 -116.393
RightShoulder  -0.161716 11.7341 -10.901
RightArm  -21.9858 -28.4531 100.428
RightForeArm  6.62032 27.7469 173.912
RightHand  96.7547 29.2043 149.252
LeftUpLeg  -10.9083 5.33634 2.89162
LeftLeg  5.40618 -6.21131 -0.477564
LeftFoot  0.933829 0.328096 -3.10057
LeftToes  -7.53974e-010 3.3384e-011 -1.25048e-011
510
root  75.8779 39.6336 4.27533 -178.444 87.4152 174.571
RightUpLeg  -13.6344 -7.44816 -3.10026
RightLeg  3.38424 25.1072 2.20811
RightFoot  6.98406 -0.790829 5.19773
RightToes  2.91037e-010 0 -3.6325e-017
Spine  18.6955 2.16393 -34.5809
Spine1  -1.62154 -14.9031 66.658
HEad  -137.727 25.6996 -107.845
LeftShoulder1  -20.1867 40.3618 -45.4956
LeftArm  -53.9777 -46.767 30.9127
LeftForeArm  102.856 -80.3751 -93.204
LeftHand  79.7861 -60.9705 -106.478
RightShoulder  -0.138637 12.0466 -10.7041
RightArm  -21.0063 -27.2516 99.4546
RightForeArm  12.2814 28.0724 173.535
RightHand  98.5578 28.4881 150.751
LeftUpLeg  -11.0388 5.23425 2.85898
LeftLeg  5.76103 -6.13606 -0.430523
LeftFoot  1.48566 0.317512 -2.90487
LeftToes  -7.53974e-010 3.3384e-011 -1.25048e-011
511
root  75.9075 39.6377 4.2999 -176.895 87.3047 175.979
RightUpLeg  -14.0173 -7.22974 -2.90526
RightLeg  3.95761 24.7139 2.281
RightFoot  7.12716 -0.635965 4.20989
RightToes  2.91037e-010 0 -3.6325e-017
Spine  18.7499 1.81528 -35.5465
Spine1  -1.04971 -16.2254 68.5457
HEad  -140.991 24.1499 -108.697
LeftShoulder1  -21.7743 43.609 -44.7661
LeftArm  -51.1054 -48.0543 26.0189
LeftForeArm  117.12 -79.6373 -109.772
LeftHand  71.7437 -58.6191 -100.78
RightShoulder  -0.158438 12.4235 -10.8226
RightArm  -20.2364 -25.8726 98.4146
RightForeArm  19.2454 28.6091 173.049
RightHand  101.401 28.0674 152.443
LeftUpLeg  -11.5355 5.09874 2.90949
LeftLeg  6.4451 -6.22926 -0.450175
LeftFoot  1.8171 0.246888 -2.2406
LeftToes  -7.53974e-010 3.3384e-011 -1.25048e-011
512
root  75.8773 39.6561 4.32805 -177.543 87.2113 175.594
RightUpLeg  -14.0773 -6.95478 -2.72218
RightLeg  4.53501 23.9934 2.17758
RightFoot  7.30178 -0.609983 4.02019
RightToes  2.91037e-010 0 -3.6325e-017
Spine  18.9695 1.64879 -36.2352
Spine1  -0.24722 -17.4517 69.948
HEad  -143.674 22.5932 -109.471
LeftShoulder1  -23.3833 46.9373 -44.0168
LeftArm  -45.0664 -49.0966 18.3481
LeftForeArm  133.803 -77.6167 -128.055
LeftHand  63.1409 -54.75 -95.6796
RightShoulder  -0.181191 12.6754 -10.9658
RightArm  -19.4818 -24.2096 97.679
RightForeArm  27.045 29.3844 172.481
RightHand  104.893 27.8528 154.184
LeftUpLeg  -11.7407 5.02012 2.9411
LeftLeg  7.34548 -6.62106 -0.604319
LeftFoot  2.37961 0.147681 -1.34563
LeftToes  -7.53974e-010 3.3384e-011 -1.25048e-011
513
root  75.8472 39.6568 4.33636 -179.247 87.2049 173.856
RightUpLeg  -14.6054 -6.88089 -2.69568
RightLeg  5.40971 23.5913 2.46064
RightFoot  7.40973 -0.530764 3.52118
RightToes  2.91037e-010 0 -3.6325e-017
Spine  18.8813 1.3878 -37.1206
Spine1  0.610002 -18.6982 71.0921
HEad  -146.232 21.0339 -110.152
LeftShoulder1  -25.0533 50.0845 -43.5822
LeftArm  -40.8207 -49.6723 12.4936
LeftForeArm  143.22 -75.0707 -139.196
LeftHand  56.941 -51.8886 -91.7368
RightShoulder  -0.21278 12.9712 -11.1617
RightArm  -18.6482 -22.419 97.4254
RightForeArm  36.4053 30.3099 171.824
RightHand  109.477 27.853 156.154
LeftUpLeg  -12.247 4.79955 2.81793
LeftLeg  8.04166 -6.2366 -0.569331
LeftFoot  2.64583 0.141139 -1.2828
LeftToes  -7.53974e-010 3.3384e-011 -1.25048e-011
514
root  75.7893 39.6404 4.33038 -175.614 87.0862 177.189
RightUpLeg  -15.3462 -6.65345 -2.44779
RightLeg  5.99065 23.0699 2.54568
RightFoot  7.69575 -0.523742 3.4358
RightToes  2.91037e-010 0 -3.6325e-017
Spine  18.4854 0.88761 -37.9162
Spine1  1.21385 -19.9238 72.1708
HEad  -148.759 19.6536 -110.548
LeftShoulder1  -26.4614 54.5478 -41.5036
LeftArm  -32.87 -50.6924 2.81004
LeftForeArm  149.421 -72.559 -146.216
LeftHand  51.4232 -49.1292 -88.0496
RightShoulder  -0.209015 13.2093 -11.1157
RightArm  -17.548 -21.4078 97.6022
RightForeArm  51.0937 30.8016 171.234
RightHand  117.341 28.5624 158.872
LeftUpLeg  -13.3361 4.61066 2.95785
LeftLeg  9.25013 -5.9629 -0.666559
LeftFoot  2.47828 0.18091 -1.61933
LeftToes  -7.53974e-010 3.3384e-011 -1.25048e-011
515
root  75.7288 39.6453 4.31007 -167.808 86.9924 -175.38
RightUpLeg  -15.4122 -6.42099 -2.01061
RightLeg  4.95619 22.6906 2.09347
RightFoot  8.62369 -0.550101 3.46149
RightToes  2.91037e-010 0 -3.6325e-017
Spine  17.9301 0.415933 -39.2792
Spine1  0.550061 -20.4557 73.9558
HEad  -151.447 19.5185 -110.671
LeftShoulder1  -26.523 62.6983 -33.856
LeftArm  -8.83964 -53.1044 -22.3685
LeftForeArm  156.737 -70.3781 -151.04
LeftHand  42.8647 -43.4545 -83.3727
RightShoulder  -0.0971386 13.3557 -10.3393
RightArm  -15.8655 -22.4565 98.2024
RightForeArm  79.6864 30.5658 170.788
RightHand  132.225 30.6536 163.445
LeftUpLeg  -14.3917 4.09364 3.30006
LeftLeg  10.2157 -5.61509 -0.613396
LeftFoot  2.89722 0.113359 -1.04727
LeftToes  -7.53974e-010 3.3384e-011 -1.25048e-011
516
root  75.6087 39.6086 4.33263 -164.965 86.6135 -172.719
RightUpLeg  -16.3077 -6.07838 -1.71865
RightLeg  6.04948 21.8298 2.31559
RightFoot  8.65311 -0.483571 3.07983
RightToes  2.91037e-010 0 -3.6325e-017
Spine  17.98 0.22741 -39.6204
Spine1  0.771187 -21.2615 75.4289
HEad  -152.957 18.5911 -111.815
LeftShoulder1  -26.8088 65.4298 -32.1334
LeftArm  -1.64965 -51.326 -29.318
LeftForeArm  160.218 -67.5124 -155.275
LeftHand  38.2457 -40.1541 -80.6112
RightShoulder  -0.143002 13.6366 -10.6362
RightArm  -14.7466 -19.8859 98.7455
RightForeArm  96.3996 33.214 170.174
RightHand  141.204 32.357 166.059
LeftUpLeg  -15.7813 3.43834 3.6098
LeftLeg  11.9353 -5.44699 -0.765793
LeftFoot  3.03686 0.127024 -1.15316
LeftToes  -7.53974e-010 3.3384e-011 -1.25048e-011
517
root  75.4728 39.5602 4.35518 -160.5 85.8583 -168.284
RightUpLeg  -16.8772 -5.71726 -1.31412
RightLeg  6.82176 20.639 2.41712
RightFoot  8.64504 -0.475085 3.0329
RightToes  2.91037e-010 0 -3.6325e-017
Spine  18.0232 -0.138786 -39.5821
Spine1  1.66067 -22.6026 76.4664
HEad  -154.46 16.9518 -112.442
LeftShoulder1  -27.4024 68.3641 -30.7723
LeftArm  4.53887 -48.7839 -35.4381
LeftForeArm  163.967 -64.1153 -159.099
LeftHand  34.3247 -37.1022 -78.2427
RightShoulder  -0.201749 13.7622 -11.0197
RightArm  -13.7543 -17.171 99.1986
RightForeArm  110.437 35.4167 169.845
RightHand  149.704 34.6176 168.479
LeftUpLeg  -17.3344 2.48567 4.20422
LeftLeg  14.0763 -5.24901 -1.01201
LeftFoot  3.03711 0.194255 -1.6864
LeftToes  -7.53974e-010 3.3384e-011 -1.25048e-011
